<svg width="24" height="24" viewBox="0 0 24 24" fill="none" xmlns="http://www.w3.org/2000/svg">
<path d="M20.1234 5.87344L15.1312 0.88125C14.5641 0.316031 13.8047 0 13.0078 0H6C4.34297 0 3 1.34297 3 3L3.0003 21C3.0003 22.657 4.34327 24 6.0003 24H18C19.657 24 21 22.657 21 21V7.99219C21 7.19531 20.6859 6.43594 20.1234 5.87344ZM13.5 1.5975C13.7099 1.67091 13.9062 1.77778 14.0681 1.93964L19.0603 6.93183C19.2234 7.09219 19.3312 7.28906 19.4016 7.5H14.25C13.8375 7.5 13.5 7.1625 13.5 6.75V1.5975ZM19.5 21C19.5 21.8269 18.8269 22.5 18 22.5H6C5.17313 22.5 4.5 21.8269 4.5 21V3C4.5 2.17313 5.17313 1.5 6 1.5H12V6.75C12 7.99219 13.0078 9 14.25 9H19.5V21ZM13.5375 13.7391L15.0375 18.2391C15.1406 18.5438 15.4266 18.75 15.75 18.75C16.0734 18.75 16.3594 18.5435 16.462 18.2372L17.962 13.7372C18.0924 13.3439 17.88 12.9192 17.4877 12.7889C17.098 12.6607 16.6716 12.8702 16.5384 13.2628L15.75 15.6281L14.962 13.2623C14.8302 12.869 14.407 12.6595 14.0128 12.7884C13.6219 12.9188 13.4062 13.3453 13.5375 13.7391ZM11.5594 14.25H12C12.4146 14.25 12.75 13.9146 12.75 13.5C12.75 13.0854 12.4125 12.75 12 12.75H11.5594C10.5609 12.75 9.75 13.5609 9.75 14.5594C9.75 15.0375 9.94336 15.5044 10.2802 15.8395L11.1605 16.7194C11.2172 16.7766 11.25 16.8562 11.25 16.9406C11.25 17.1094 11.1094 17.25 10.9406 17.25H10.5C10.0854 17.25 9.75 17.5854 9.75 18C9.75 18.4146 10.0854 18.75 10.5 18.75H10.9395C11.9391 18.75 12.75 17.9391 12.75 16.9406C12.75 16.4625 12.5566 15.9956 12.2198 15.6605L11.3391 14.7797C11.2828 14.7234 11.25 14.6438 11.25 14.5594C11.25 14.3484 11.3484 14.25 11.5594 14.25ZM8.25 14.25C8.6625 14.25 9 13.9125 9 13.5C9 13.0875 8.6625 12.75 8.25 12.75C7.00922 12.75 6 13.7578 6 15V16.5C6 17.7408 7.00922 18.75 8.25 18.75C8.6625 18.75 9 18.4125 9 18C9 17.5875 8.66456 17.25 8.25 17.25C7.8375 17.25 7.5 16.9125 7.5 16.5V15C7.5 14.5875 7.8375 14.25 8.25 14.25Z" fill="#324E54"/>
</svg>
