<svg width="32" height="32" viewBox="0 0 32 32" fill="none" xmlns="http://www.w3.org/2000/svg">
<g clip-path="url(#clip0_410_7530)">
<path d="M7.6625 9.69373L15 3.22686V23C15 23.5527 15.4473 24 16 24C16.5527 24 17 23.5527 17 23V3.22686L24.3375 9.74561C24.525 9.91873 24.7625 9.99998 25 9.99998C25.2754 9.99998 25.5508 9.88673 25.7481 9.66405C26.1153 9.25192 26.0763 8.61905 25.6641 8.2528L16.6641 0.252796C16.2852 -0.0850791 15.7148 -0.0850791 15.336 0.252796L6.336 8.2528C5.92375 8.61873 5.885 9.24998 6.25 9.66248C6.615 10.075 7.25625 10.1125 7.6625 9.69373ZM28 20H21C20.4478 20 20 20.4476 20 21C20 21.5522 20.4478 22 21 22H28C29.1044 22 30 22.8956 30 24V28C30 29.1044 29.1044 30 28 30H4C2.89563 30 2 29.1044 2 28V24C2 22.8956 2.89563 22 4 22H11C11.55 22 12 21.55 12 21C12 20.45 11.55 20 11 20H4C1.79063 20 0 21.7906 0 24V28C0 30.2094 1.79063 32 4 32H28C30.2094 32 32 30.2094 32 28V24C32 21.7937 30.2062 20 28 20ZM27.5 26C27.5 25.1719 26.8281 24.5 26 24.5C25.1719 24.5 24.5 25.1719 24.5 26C24.5 26.8281 25.1719 27.5 26 27.5C26.8281 27.5 27.5 26.8312 27.5 26Z" fill="#324E54"/>
</g>
<defs>
<clipPath id="clip0_410_7530">
<rect width="32" height="32" fill="white"/>
</clipPath>
</defs>
</svg>
